<svg width="34" height="34" viewBox="0 0 34 34" fill="none" xmlns="http://www.w3.org/2000/svg">
<path d="M12.2778 28.6316C11.7174 28.6316 11.1696 28.789 10.7037 29.084C10.2377 29.3789 9.87457 29.7981 9.66012 30.2886C9.44567 30.7791 9.38956 31.3188 9.49889 31.8395C9.60821 32.3601 9.87806 32.8384 10.2743 33.2138C10.6706 33.5892 11.1754 33.8449 11.725 33.9484C12.2746 34.052 12.8443 33.9988 13.362 33.7957C13.8798 33.5925 14.3223 33.2485 14.6336 32.8071C14.9449 32.3656 15.1111 31.8467 15.1111 31.3158C15.1111 30.6039 14.8126 29.9212 14.2812 29.4178C13.7499 28.9144 13.0292 28.6316 12.2778 28.6316ZM32.1111 23.2632H9.44444C8.94348 23.2632 8.46303 23.0746 8.1088 22.739C7.75456 22.4034 7.55556 21.9483 7.55556 21.4737C7.55556 20.9991 7.75456 20.5439 8.1088 20.2083C8.46303 19.8727 8.94348 19.6842 9.44444 19.6842H25.4834C26.7139 19.6805 27.9099 19.299 28.8923 18.5971C29.8747 17.8951 30.5905 16.9105 30.9324 15.7907L33.9271 5.86035C34.0075 5.59402 34.0215 5.31367 33.968 5.04135C33.9146 4.76903 33.7951 4.51219 33.6191 4.29104C33.443 4.06988 33.2152 3.89046 32.9535 3.7669C32.6919 3.64333 32.4035 3.57899 32.1111 3.57895H8.95158C8.56055 2.53633 7.83973 1.63327 6.88731 0.992825C5.9349 0.352379 4.79722 0.00569186 3.62929 0H1.88889C1.38792 0 0.907478 0.188533 0.553243 0.524125C0.199007 0.859716 0 1.31488 0 1.78947C0 2.26407 0.199007 2.71923 0.553243 3.05482C0.907478 3.39041 1.38792 3.57895 1.88889 3.57895H3.62929C4.03934 3.5803 4.43789 3.70746 4.76526 3.94137C5.09264 4.17528 5.33123 4.50337 5.44531 4.87649L5.73907 5.85129L5.73952 5.86035L8.83849 16.1358C7.39644 16.2828 6.06876 16.948 5.12883 17.9945C4.18891 19.0409 3.70829 20.389 3.78595 21.761C3.86361 23.1331 4.49362 24.4247 5.54627 25.37C6.59892 26.3152 7.99407 26.8421 9.44444 26.8421H32.1111C32.6121 26.8421 33.0925 26.6536 33.4468 26.318C33.801 25.9824 34 25.5272 34 25.0526C34 24.578 33.801 24.1229 33.4468 23.7873C33.0925 23.4517 32.6121 23.2632 32.1111 23.2632ZM29.607 7.15789L27.3003 14.8068C27.1864 15.1803 26.9477 15.5087 26.6201 15.7428C26.2926 15.9769 25.8937 16.104 25.4834 16.1053H12.7583L12.2767 14.5087L10.061 7.15789H29.607ZM27.3889 28.6316C26.8285 28.6316 26.2807 28.789 25.8148 29.084C25.3488 29.3789 24.9857 29.7981 24.7712 30.2886C24.5568 30.7791 24.5007 31.3188 24.61 31.8395C24.7193 32.3601 24.9892 32.8384 25.3854 33.2138C25.7817 33.5892 26.2865 33.8449 26.8361 33.9484C27.3857 34.052 27.9554 33.9988 28.4732 33.7957C28.9909 33.5925 29.4334 33.2485 29.7447 32.8071C30.056 32.3656 30.2222 31.8467 30.2222 31.3158C30.2222 30.6039 29.9237 29.9212 29.3924 29.4178C28.861 28.9144 28.1403 28.6316 27.3889 28.6316Z" fill="white"/>
</svg>
