<svg width="45" height="45" viewBox="0 0 45 45" fill="none" xmlns="http://www.w3.org/2000/svg">
<g filter="url(#filter0_i_249_181)">
<circle cx="22.5" cy="22.5" r="22.5" fill="#325838"/>
</g>
<g filter="url(#filter1_i_249_181)">
<path d="M16.9167 35.7895C16.3728 35.7895 15.8411 35.9423 15.3888 36.2285C14.9366 36.5148 14.5841 36.9217 14.376 37.3977C14.1679 37.8738 14.1134 38.3976 14.2195 38.903C14.3256 39.4084 14.5875 39.8726 14.9721 40.2369C15.3567 40.6013 15.8467 40.8494 16.3802 40.9499C16.9136 41.0505 17.4665 40.9989 17.969 40.8017C18.4715 40.6045 18.901 40.2706 19.2032 39.8421C19.5054 39.4137 19.6667 38.91 19.6667 38.3947C19.6667 37.7038 19.3769 37.0411 18.8612 36.5525C18.3455 36.064 17.646 35.7895 16.9167 35.7895ZM36.1667 30.5789H14.1667C13.6804 30.5789 13.2141 30.396 12.8703 30.0702C12.5265 29.7445 12.3333 29.3027 12.3333 28.8421C12.3333 28.3815 12.5265 27.9397 12.8703 27.614C13.2141 27.2883 13.6804 27.1053 14.1667 27.1053H29.7339C30.9282 27.1016 32.089 26.7314 33.0425 26.0501C33.996 25.3688 34.6908 24.4131 35.0227 23.3263L37.9293 13.688C38.0073 13.4295 38.0208 13.1574 37.969 12.8931C37.9171 12.6288 37.8011 12.3795 37.6303 12.1648C37.4594 11.9502 37.2383 11.776 36.9843 11.6561C36.7303 11.5362 36.4504 11.4737 36.1667 11.4737H13.6883C13.3088 10.4617 12.6091 9.58523 11.6847 8.96362C10.7603 8.34202 9.65613 8.00552 8.52255 8H6.83333C6.3471 8 5.88079 8.18299 5.53697 8.50871C5.19315 8.83443 5 9.2762 5 9.73684C5 10.1975 5.19315 10.6393 5.53697 10.965C5.88079 11.2907 6.3471 11.4737 6.83333 11.4737H8.52255C8.92053 11.475 9.30736 11.5984 9.62511 11.8254C9.94286 12.0525 10.1744 12.3709 10.2852 12.7331L10.5703 13.6792L10.5707 13.688L13.5785 23.6613C12.1789 23.8039 10.8903 24.4495 9.97799 25.4652C9.06571 26.4809 8.59923 27.7893 8.6746 29.121C8.74997 30.4527 9.36146 31.7063 10.3831 32.6238C11.4048 33.5412 12.759 34.0526 14.1667 34.0526H36.1667C36.6529 34.0526 37.1192 33.8696 37.463 33.5439C37.8068 33.2182 38 32.7764 38 32.3158C38 31.8552 37.8068 31.4134 37.463 31.0877C37.1192 30.7619 36.6529 30.5789 36.1667 30.5789ZM33.7363 14.9474L31.4974 22.3713C31.3868 22.7338 31.1551 23.0525 30.8372 23.2797C30.5193 23.5069 30.1321 23.6304 29.7339 23.6316H17.383L16.9157 22.082L14.7651 14.9474H33.7363ZM31.5833 35.7895C31.0394 35.7895 30.5078 35.9423 30.0555 36.2285C29.6033 36.5148 29.2508 36.9217 29.0427 37.3977C28.8345 37.8738 28.7801 38.3976 28.8862 38.903C28.9923 39.4084 29.2542 39.8726 29.6388 40.2369C30.0234 40.6013 30.5134 40.8494 31.0468 40.9499C31.5803 41.0505 32.1332 40.9989 32.6357 40.8017C33.1382 40.6045 33.5677 40.2706 33.8699 39.8421C34.172 39.4137 34.3333 38.91 34.3333 38.3947C34.3333 37.7038 34.0436 37.0411 33.5279 36.5525C33.0122 36.064 32.3127 35.7895 31.5833 35.7895Z" fill="white"/>
</g>
<defs>
<filter id="filter0_i_249_181" x="0" y="0" width="45" height="49" filterUnits="userSpaceOnUse" color-interpolation-filters="sRGB">
<feFlood flood-opacity="0" result="BackgroundImageFix"/>
<feBlend mode="normal" in="SourceGraphic" in2="BackgroundImageFix" result="shape"/>
<feColorMatrix in="SourceAlpha" type="matrix" values="0 0 0 0 0 0 0 0 0 0 0 0 0 0 0 0 0 0 127 0" result="hardAlpha"/>
<feOffset dy="4"/>
<feGaussianBlur stdDeviation="2"/>
<feComposite in2="hardAlpha" operator="arithmetic" k2="-1" k3="1"/>
<feColorMatrix type="matrix" values="0 0 0 0 0 0 0 0 0 0 0 0 0 0 0 0 0 0 0.25 0"/>
<feBlend mode="normal" in2="shape" result="effect1_innerShadow_249_181"/>
</filter>
<filter id="filter1_i_249_181" x="5" y="8" width="33" height="37" filterUnits="userSpaceOnUse" color-interpolation-filters="sRGB">
<feFlood flood-opacity="0" result="BackgroundImageFix"/>
<feBlend mode="normal" in="SourceGraphic" in2="BackgroundImageFix" result="shape"/>
<feColorMatrix in="SourceAlpha" type="matrix" values="0 0 0 0 0 0 0 0 0 0 0 0 0 0 0 0 0 0 127 0" result="hardAlpha"/>
<feOffset dy="4"/>
<feGaussianBlur stdDeviation="2"/>
<feComposite in2="hardAlpha" operator="arithmetic" k2="-1" k3="1"/>
<feColorMatrix type="matrix" values="0 0 0 0 0 0 0 0 0 0 0 0 0 0 0 0 0 0 0.25 0"/>
<feBlend mode="normal" in2="shape" result="effect1_innerShadow_249_181"/>
</filter>
</defs>
</svg>
