<svg width="38" height="35" viewBox="0 0 38 35" fill="none" xmlns="http://www.w3.org/2000/svg">
<path d="M32.9403 13.3643C32.615 12.5624 32.068 11.9826 31.3582 11.6878C31.0324 11.5528 30.6906 11.4844 30.3423 11.4844C28.856 11.4844 27.3459 12.7604 26.5844 14.6599C25.642 17.0129 26.19 19.3176 27.859 20.0209C28.1946 20.1625 28.554 20.2344 28.9273 20.2344C30.4411 20.2344 31.9796 19.0641 32.7556 17.3225C33.3419 16.0044 33.4109 14.5248 32.9403 13.3643Z" fill="white"/>
<path d="M11.4156 14.6599C10.6542 12.7604 9.14402 11.4844 7.65779 11.4844C7.30948 11.4844 6.96756 11.5528 6.64181 11.6878C5.93191 11.9826 5.38499 12.5624 5.05969 13.3643C4.58907 14.5248 4.65809 16.0044 5.2445 17.3225C6.02045 19.0641 7.55901 20.2344 9.07277 20.2344C9.44595 20.2344 9.80539 20.1625 10.1411 20.0209C11.8101 19.3176 12.3581 17.0129 11.4156 14.6599Z" fill="white"/>
<path d="M14.7211 14.3966C14.8587 14.4021 14.9977 14.3986 15.1339 14.3862C15.9345 14.3138 16.6584 13.9355 17.2274 13.2919C18.1456 12.2535 18.4005 10.6277 18.2072 8.95528C17.9116 6.37793 16.4371 4.45437 14.456 4.375C14.456 4.375 14.1732 4.37555 14.0293 4.38819C13.1553 4.46776 12.3608 4.88605 11.7317 5.59781C10.8195 6.63011 10.381 8.16607 10.5588 9.70648C10.8509 12.2547 12.6792 14.3147 14.7211 14.3966Z" fill="white"/>
<path d="M19 16.4062C14.25 16.4062 9.5 21.6066 9.5 26.6005C9.5 28.0906 10.3114 29.2892 11.1081 29.7804C12.0921 30.3868 12.7856 30.625 14.228 30.625C15.942 30.625 16.4045 30.0728 17.2069 29.5856C17.7872 29.2334 18.2884 28.929 19.0001 28.929C19.7118 28.929 20.213 29.2334 20.7932 29.5856C21.5956 30.0728 22.058 30.625 23.772 30.625C25.2144 30.625 25.9079 30.3868 26.8919 29.7804C27.6886 29.2892 28.5 28.0906 28.5 26.6005C28.5 21.6066 23.75 16.4062 19 16.4062Z" fill="white"/>
<path d="M22.8802 14.3736C23.0165 14.386 23.1555 14.3894 23.2931 14.3839C25.3349 14.3021 27.1633 12.2421 27.4554 9.69397C27.6331 8.15356 27.1946 6.61752 26.2824 5.5853C25.6533 4.87354 24.8884 4.47596 24.0143 4.39639C23.8704 4.38367 23.5581 4.37506 23.5581 4.37506C21.577 4.45443 20.1024 6.36534 19.807 8.94263C19.6137 10.6151 19.8686 12.2408 20.7867 13.2793C21.3558 13.9228 22.0796 14.3012 22.8802 14.3736Z" fill="white"/>
</svg>
