<svg width="42" height="42" viewBox="0 0 42 42" fill="none" xmlns="http://www.w3.org/2000/svg">
<g filter="url(#filter0_i_249_180)">
<circle cx="21" cy="21" r="21" fill="#325838"/>
</g>
<g filter="url(#filter1_i_249_180)">
<path d="M34.9403 16.3643C34.615 15.5624 34.068 14.9826 33.3582 14.6878C33.0324 14.5528 32.6906 14.4844 32.3423 14.4844C30.856 14.4844 29.3459 15.7604 28.5844 17.6599C27.642 20.0129 28.1899 22.3176 29.859 23.0209C30.1946 23.1625 30.554 23.2344 30.9273 23.2344C32.441 23.2344 33.9796 22.0641 34.7556 20.3225C35.3419 19.0044 35.4109 17.5248 34.9403 16.3643Z" fill="white"/>
<path d="M13.4157 17.6599C12.6542 15.7604 11.144 14.4844 9.65782 14.4844C9.30951 14.4844 8.96758 14.5528 8.64183 14.6878C7.93193 14.9826 7.38501 15.5624 7.05971 16.3643C6.58909 17.5248 6.65812 19.0044 7.24452 20.3225C8.02048 22.0641 9.55903 23.2344 11.0728 23.2344C11.446 23.2344 11.8054 23.1625 12.1411 23.0209C13.8101 22.3176 14.3581 20.0129 13.4157 17.6599Z" fill="white"/>
<path d="M16.7211 17.3966C16.8587 17.4021 16.9977 17.3986 17.1339 17.3862C17.9345 17.3138 18.6584 16.9355 19.2274 16.2919C20.1456 15.2535 20.4005 13.6277 20.2072 11.9553C19.9117 9.37793 18.4372 7.45437 16.456 7.375C16.456 7.375 16.1732 7.37555 16.0293 7.38819C15.1553 7.46776 14.3608 7.88605 13.7317 8.59781C12.8195 9.63011 12.381 11.1661 12.5588 12.7065C12.8509 15.2547 14.6792 17.3147 16.7211 17.3966Z" fill="white"/>
<path d="M21 19.4062C16.25 19.4062 11.5 24.6066 11.5 29.6005C11.5 31.0906 12.3114 32.2892 13.1081 32.7804C14.0921 33.3868 14.7856 33.625 16.228 33.625C17.942 33.625 18.4045 33.0728 19.2069 32.5856C19.7872 32.2334 20.2884 31.929 21.0001 31.929C21.7118 31.929 22.213 32.2334 22.7932 32.5856C23.5956 33.0728 24.058 33.625 25.772 33.625C27.2144 33.625 27.9079 33.3868 28.8919 32.7804C29.6886 32.2892 30.5 31.0906 30.5 29.6005C30.5 24.6066 25.75 19.4062 21 19.4062Z" fill="white"/>
<path d="M24.8802 17.3736C25.0165 17.386 25.1555 17.3894 25.2931 17.3839C27.3349 17.3021 29.1633 15.2421 29.4554 12.694C29.6331 11.1536 29.1946 9.61752 28.2824 8.5853C27.6533 7.87354 26.8884 7.47596 26.0143 7.39639C25.8704 7.38367 25.5581 7.37506 25.5581 7.37506C23.577 7.45443 22.1024 9.36534 21.807 11.9426C21.6137 13.6151 21.8686 15.2408 22.7867 16.2793C23.3558 16.9228 24.0796 17.3012 24.8802 17.3736Z" fill="white"/>
</g>
<defs>
<filter id="filter0_i_249_180" x="0" y="0" width="42" height="46" filterUnits="userSpaceOnUse" color-interpolation-filters="sRGB">
<feFlood flood-opacity="0" result="BackgroundImageFix"/>
<feBlend mode="normal" in="SourceGraphic" in2="BackgroundImageFix" result="shape"/>
<feColorMatrix in="SourceAlpha" type="matrix" values="0 0 0 0 0 0 0 0 0 0 0 0 0 0 0 0 0 0 127 0" result="hardAlpha"/>
<feOffset dy="4"/>
<feGaussianBlur stdDeviation="2"/>
<feComposite in2="hardAlpha" operator="arithmetic" k2="-1" k3="1"/>
<feColorMatrix type="matrix" values="0 0 0 0 0 0 0 0 0 0 0 0 0 0 0 0 0 0 0.25 0"/>
<feBlend mode="normal" in2="shape" result="effect1_innerShadow_249_180"/>
</filter>
<filter id="filter1_i_249_180" x="2" y="3" width="38" height="39" filterUnits="userSpaceOnUse" color-interpolation-filters="sRGB">
<feFlood flood-opacity="0" result="BackgroundImageFix"/>
<feBlend mode="normal" in="SourceGraphic" in2="BackgroundImageFix" result="shape"/>
<feColorMatrix in="SourceAlpha" type="matrix" values="0 0 0 0 0 0 0 0 0 0 0 0 0 0 0 0 0 0 127 0" result="hardAlpha"/>
<feOffset dy="4"/>
<feGaussianBlur stdDeviation="2"/>
<feComposite in2="hardAlpha" operator="arithmetic" k2="-1" k3="1"/>
<feColorMatrix type="matrix" values="0 0 0 0 0 0 0 0 0 0 0 0 0 0 0 0 0 0 0.25 0"/>
<feBlend mode="normal" in2="shape" result="effect1_innerShadow_249_180"/>
</filter>
</defs>
</svg>
