<svg width="57" height="57" viewBox="0 0 57 57" fill="none" xmlns="http://www.w3.org/2000/svg">
<g filter="url(#filter0_d_226_4265)">
<path d="M28.5001 0C22.0045 0.00726285 15.7771 2.59084 11.184 7.18391C6.59092 11.777 4.00734 18.0044 4.00008 24.5C4.01096 30.9945 6.5957 37.2198 11.188 41.8121C15.7803 46.4044 22.0056 48.9891 28.5001 49C34.9979 49 41.2296 46.4188 45.8242 41.8241C50.4188 37.2295 53.0001 30.9978 53.0001 24.5C53.0001 18.0022 50.4188 11.7705 45.8242 7.17588C41.2296 2.58124 34.9979 0 28.5001 0ZM43.402 38.6375C42.026 35.8621 39.9018 33.5265 37.2691 31.8942C34.6363 30.2619 31.5998 29.3978 28.5021 29.3994C25.4044 29.4011 22.3687 30.2684 19.7377 31.9034C17.1067 33.5385 14.985 35.8764 13.6119 38.6532C9.94851 34.8537 7.90722 29.7779 7.92008 24.5C7.92008 19.0418 10.0883 13.8072 13.9478 9.94774C17.8073 6.08824 23.0419 3.92 28.5001 3.92C33.9582 3.92 39.1928 6.08824 43.0523 9.94774C46.9118 13.8072 49.0801 19.0418 49.0801 24.5C49.0923 29.7705 47.0564 34.8396 43.402 38.6375ZM28.5001 9.8C26.7556 9.8 25.0504 10.3173 23.5999 11.2864C22.1495 12.2556 21.019 13.6331 20.3515 15.2447C19.6839 16.8564 19.5092 18.6298 19.8496 20.3407C20.1899 22.0516 21.0299 23.6232 22.2634 24.8567C23.4969 26.0902 25.0685 26.9302 26.7794 27.2705C28.4903 27.6108 30.2637 27.4362 31.8753 26.7686C33.487 26.1011 34.8645 24.9706 35.8336 23.5201C36.8028 22.0697 37.3201 20.3644 37.3201 18.62C37.3201 17.4617 37.0919 16.3148 36.6487 15.2447C36.2055 14.1746 35.5558 13.2023 34.7368 12.3833C33.9177 11.5643 32.9454 10.9146 31.8753 10.4714C30.8053 10.0281 29.6583 9.8 28.5001 9.8Z" fill="#2C7338"/>
</g>
<defs>
<filter id="filter0_d_226_4265" x="0.00012207" y="0" width="57" height="57" filterUnits="userSpaceOnUse" color-interpolation-filters="sRGB">
<feFlood flood-opacity="0" result="BackgroundImageFix"/>
<feColorMatrix in="SourceAlpha" type="matrix" values="0 0 0 0 0 0 0 0 0 0 0 0 0 0 0 0 0 0 127 0" result="hardAlpha"/>
<feOffset dy="4"/>
<feGaussianBlur stdDeviation="2"/>
<feComposite in2="hardAlpha" operator="out"/>
<feColorMatrix type="matrix" values="0 0 0 0 0 0 0 0 0 0 0 0 0 0 0 0 0 0 0.25 0"/>
<feBlend mode="normal" in2="BackgroundImageFix" result="effect1_dropShadow_226_4265"/>
<feBlend mode="normal" in="SourceGraphic" in2="effect1_dropShadow_226_4265" result="shape"/>
</filter>
</defs>
</svg>
